<?xml version="1.0" encoding="UTF-8"?>
<svg width="12px" height="17px" viewBox="0 0 12 17" version="1.1" xmlns="http://www.w3.org/2000/svg" xmlns:xlink="http://www.w3.org/1999/xlink">
    <!-- Generator: Sketch 52.4 (67378) - http://www.bohemiancoding.com/sketch -->
    <title>Arrow right</title>
    <desc>Created with Sketch.</desc>
    <g id="Page-1" stroke="none" stroke-width="1" fill="none" fill-rule="evenodd">
        <g id="WebHD" transform="translate(-766.000000, -796.000000)" fill="#FFFFFF">
            <path d="M779.854804,804.146266 L774.906127,799.146101 C774.713332,798.9513 774.39974,798.9513 774.206145,799.146101 C774.01335,799.34171 774.01335,799.658565 774.206145,799.853366 L778.314842,804.004005 L764.495188,804.004005 C764.221594,804.004005 764,804.227905 764,804.504345 C764,804.780784 764.221594,805.004684 764.495188,805.004684 L778.305242,805.004684 L774.206145,809.146432 C774.01335,809.341233 774.01335,809.658088 774.206145,809.853697 C774.303742,809.950693 774.430139,810 774.556536,810 C774.682933,810 774.81013,809.950693 774.906127,809.853697 L779.854804,804.853532 C780.048399,804.657922 780.048399,804.341876 779.854804,804.146266" id="Arrow-right" transform="translate(772.000000, 804.500000) rotate(90.000000) translate(-772.000000, -804.500000) "></path>
        </g>
    </g>
</svg>